<svg width="20" height="9" viewBox="0 0 20 9" fill="none" xmlns="http://www.w3.org/2000/svg">
<path d="M0.396447 4.14449C0.201184 4.33976 0.201184 4.65634 0.396447 4.8516L3.57843 8.03358C3.77369 8.22884 4.09027 8.22884 4.28553 8.03358C4.4808 7.83832 4.4808 7.52174 4.28553 7.32647L1.45711 4.49805L4.28553 1.66962C4.4808 1.47436 4.4808 1.15778 4.28553 0.962513C4.09027 0.767251 3.77369 0.767251 3.57843 0.962513L0.396447 4.14449ZM19.1036 4.8516C19.2988 4.65634 19.2988 4.33976 19.1036 4.14449L15.9216 0.962513C15.7263 0.767251 15.4097 0.767251 15.2145 0.962513C15.0192 1.15778 15.0192 1.47436 15.2145 1.66962L18.0429 4.49805L15.2145 7.32647C15.0192 7.52174 15.0192 7.83832 15.2145 8.03358C15.4097 8.22884 15.7263 8.22884 15.9216 8.03358L19.1036 4.8516ZM0.75 4.99805L18.75 4.99805V3.99805L0.75 3.99805L0.75 4.99805Z" fill="#BBBBBB"/>
</svg>
