<svg width="22" height="19" viewBox="0 0 22 19" fill="none" xmlns="http://www.w3.org/2000/svg">
<path d="M4.43686 5.85399C4.55694 5.35474 5.00353 5.00283 5.51703 5.00283H16.8275C17.3362 5.00283 17.78 5.34839 17.9046 5.84164L20.5946 16.4876C20.772 17.1895 20.2414 17.8707 19.5175 17.8707H2.95633C2.23765 17.8707 1.70809 17.1987 1.87616 16.4999L4.43686 5.85399Z" stroke="#BBBBBB" stroke-width="1.25517"/>
<ellipse cx="8.72472" cy="8.66361" rx="0.695425" ry="0.687783" fill="#BBBBBB"/>
<ellipse cx="11.42" cy="8.66361" rx="0.695425" ry="0.687783" fill="#BBBBBB"/>
<ellipse cx="14.1153" cy="8.66361" rx="0.695425" ry="0.687783" fill="#BBBBBB"/>
<path d="M12.7223 2.85238C12.7223 3.79925 11.9443 4.57864 10.9699 4.57864C9.99552 4.57864 9.21749 3.79925 9.21749 2.85238C9.21749 1.90551 9.99552 1.12612 10.9699 1.12612C11.9443 1.12612 12.7223 1.90551 12.7223 2.85238Z" stroke="#BBBBBB" stroke-width="1.25517"/>
</svg>
