<svg width="19" height="19" viewBox="0 0 19 19" fill="none" xmlns="http://www.w3.org/2000/svg">
<path d="M18.25 9.49805C18.25 14.1925 14.4444 17.998 9.75 17.998C5.05558 17.998 1.25 14.1925 1.25 9.49805C1.25 4.80363 5.05558 0.998047 9.75 0.998047C14.4444 0.998047 18.25 4.80363 18.25 9.49805Z" stroke="#BBBBBB"/>
<circle cx="9.75" cy="9.49805" r="2.5" stroke="#BBBBBB"/>
<path d="M9.75 1.49805L9.97318 8.37603L12.8115 2.10701L10.3856 8.54685L15.4069 3.84119L10.7012 8.86247L17.141 6.43658L10.872 9.27486L17.75 9.49805L10.872 9.72123L17.141 12.5595L10.7012 10.1336L15.4069 15.1549L10.3856 10.4492L12.8115 16.8891L9.97318 10.6201L9.75 17.498L9.52682 10.6201L6.68853 16.8891L9.11443 10.4492L4.09315 15.1549L8.7988 10.1336L2.35896 12.5595L8.62798 9.72123L1.75 9.49805L8.62798 9.27486L2.35896 6.43658L8.7988 8.86247L4.09315 3.84119L9.11443 8.54685L6.68853 2.10701L9.52682 8.37603L9.75 1.49805Z" fill="#BBBBBB"/>
<circle cx="9.75" cy="9.49805" r="2" fill="white"/>
</svg>
